<svg xmlns="http://www.w3.org/2000/svg" viewBox="0 0 720 470" role="img" aria-labelledby="title desc"><title id="title">Electric delivery scooter</title><desc id="desc">A green electric scooter built for urban delivery.</desc><defs><linearGradient id="g" x1="0" y1="0" x2="1" y2="1"><stop stop-color="#C9FF55"/><stop offset="1" stop-color="#00BC84"/></linearGradient><linearGradient id="dark" x1="0" y1="0" x2="1" y2="1"><stop stop-color="#23322F"/><stop offset="1" stop-color="#08100E"/></linearGradient><filter id="s" x="-30%" y="-30%" width="160%" height="160%"><feDropShadow dx="0" dy="15" stdDeviation="14" flood-color="#000" flood-opacity=".38"/></filter></defs><ellipse cx="365" cy="411" rx="260" ry="25" fill="#000" opacity=".23"/><g filter="url(#s)"><circle cx="188" cy="360" r="76" fill="#09110F" stroke="#52605C" stroke-width="11"/><circle cx="188" cy="360" r="31" fill="#C9FF55"/><circle cx="188" cy="360" r="12" fill="#0B1512"/><circle cx="534" cy="360" r="76" fill="#09110F" stroke="#52605C" stroke-width="11"/><circle cx="534" cy="360" r="31" fill="#C9FF55"/><circle cx="534" cy="360" r="12" fill="#0B1512"/><path d="M190 351c52-53 120-84 201-77 44 4 95 26 132 66l-31 35H229z" fill="url(#g)"/><path d="M277 356h186l-27-111H307z" fill="#0E1D19" opacity=".92"/><path d="M305 256c45-17 98-21 147-8l-18-51c-6-17-22-28-40-28h-63c-19 0-35 12-41 30l-13 41z" fill="url(#dark)"/><path d="M393 172l23-78h21l2 91" fill="none" stroke="#C9FF55" stroke-width="15" stroke-linecap="round"/><path d="M427 95h64" stroke="#D8E1DE" stroke-width="14" stroke-linecap="round"/><path d="M486 95l43 42" stroke="#D8E1DE" stroke-width="12" stroke-linecap="round"/><path d="M529 137v175" stroke="#C9FF55" stroke-width="14" stroke-linecap="round"/><path d="M258 188h188c16 0 28 13 28 28v25H230v-25c0-15 13-28 28-28z" fill="#0B1512"/><path d="M318 292h77v52h-77z" fill="#C9FF55" opacity=".88"/><path d="M335 309h43" stroke="#0B1512" stroke-width="7" stroke-linecap="round"/><circle cx="481" cy="228" r="22" fill="#F5FFB8"/><path d="M164 280c-30 5-52 20-64 47" fill="none" stroke="#00BC84" stroke-width="13" stroke-linecap="round"/><text x="310" y="151" fill="#fff" font-family="Arial,sans-serif" font-size="28" font-weight="800">zypp</text></g></svg>
